<?xml version="1.0" standalone="no"?>
<!DOCTYPE svg PUBLIC "-//W3C//DTD SVG 20010904//EN"
 "http://www.w3.org/TR/2001/REC-SVG-20010904/DTD/svg10.dtd">
<svg version="1.0" xmlns="http://www.w3.org/2000/svg"
 width="70.000000pt" height="70.000000pt" viewBox="0 0 70.000000 70.000000"
 preserveAspectRatio="xMidYMid meet">
<metadata>
Created by potrace 1.11, written by Peter Selinger 2001-2013
</metadata>
<g transform="translate(0.000000,70.000000) scale(0.100000,-0.100000)"
fill="#000000" stroke="none">
<path d="M130 361 l0 -301 95 0 95 0 0 69 0 68 54 7 c144 16 215 91 216 224 0
79 -17 119 -69 164 -55 47 -101 59 -258 65 l-133 6 0 -302z m285 200 c61 -28
78 -53 83 -120 8 -108 -42 -154 -182 -167 l-76 -7 0 -68 c0 -39 -4 -69 -10
-69 -6 0 -10 82 -10 225 l0 225 78 0 c53 0 89 -6 117 -19z"/>
<path d="M240 424 l0 -137 74 6 c121 9 166 47 166 140 0 84 -58 127 -170 127
l-70 0 0 -136z m133 54 c41 -32 24 -97 -30 -113 -22 -6 -23 -4 -23 59 0 57 2
66 18 66 10 0 26 -6 35 -12z"/>
</g>
</svg>
